<?xml version="1.0" encoding="utf-8"?>
<!-- Generator: Adobe Illustrator 16.0.0, SVG Export Plug-In . SVG Version: 6.00 Build 0)  -->
<!DOCTYPE svg PUBLIC "-//W3C//DTD SVG 1.1 Tiny//EN" "http://www.w3.org/Graphics/SVG/1.1/DTD/svg11-tiny.dtd">
<svg version="1.1" baseProfile="tiny" id="Layer_1" xmlns="http://www.w3.org/2000/svg" xmlns:xlink="http://www.w3.org/1999/xlink"
	 x="0px" y="0px" width="150px" height="150px" viewBox="0 0 110.75 111" xml:space="preserve"
	 fill="#fff" stroke="#fff">
<g>
	<circle fill="none" cx="23.753" cy="55.168" r="20.599"/>
	<circle fill="none" cx="79.797" cy="38.486" r="27.799"/>
	<circle fill="none" cx="56.202" cy="85.834" r="14.479"/>
	<g>
		<path d="M76.362,28.652c0.399,0,0.792-0.008,1.182-0.026c0.205-2.754,4.544-4.379,9.414-4.778v-2.229
			c0-2.136-4.745-3.864-10.596-3.864c-5.852,0-10.596,1.73-10.596,3.864v3.17C65.766,26.922,70.51,28.652,76.362,28.652
			L76.362,28.652z M76.362,28.652"/>
		<path d="M65.77,26.922l-0.004,3.529c1.473-0.339,3.087-0.537,4.704-0.606
			C67.845,29.202,66.016,28.139,65.77,26.922L65.77,26.922z M65.77,26.922"/>
		<path d="M89.616,25.238c-5.852,0-10.596,1.73-10.596,3.865v1.677c1.296,0.394,2.432,0.908,3.292,1.554l0.063,0.045
			c1.028,0.791,1.647,1.772,1.647,2.957v0.218c1.623,0.368,3.539,0.581,5.594,0.581c5.851,0,10.597-1.728,10.597-3.861v-3.17
			C100.213,26.969,95.467,25.238,89.616,25.238L89.616,25.238z M89.616,25.238"/>
		<path d="M100.213,34.407c-0.402,2-5.01,3.575-10.597,3.575c-2.055,0-3.971-0.213-5.594-0.582v5.522
			c1.623,0.368,3.539,0.583,5.594,0.583c5.851,0,10.597-1.73,10.597-3.864C100.213,39.642,100.233,34.502,100.213,34.407
			L100.213,34.407z M100.213,34.407"/>
		<path d="M100.209,41.865c-0.402,2-5.006,3.576-10.593,3.576c-2.055,0-3.971-0.214-5.594-0.583v5.523
			c1.623,0.369,3.539,0.582,5.594,0.582c5.851,0,10.597-1.729,10.597-3.864C100.213,47.103,100.229,41.958,100.209,41.865
			L100.209,41.865z M100.209,41.865"/>
		<g>
			<path d="M71.964,31.196c-5.852,0-10.596,1.728-10.596,3.862v3.171c0,2.135,4.744,3.862,10.596,3.862
				s10.596-1.728,10.596-3.862v-3.171C82.56,32.924,77.816,31.196,71.964,31.196L71.964,31.196z M71.964,31.196"/>
			<path d="M71.964,43.939c-5.586,0-10.19-1.577-10.592-3.577c-0.021,0.095-0.004,5.234-0.004,5.234
				c0,2.136,4.744,3.866,10.596,3.866s10.596-1.73,10.596-3.866c0,0,0.016-5.14-0.002-5.234
				C82.154,42.362,77.553,43.939,71.964,43.939L71.964,43.939z M71.964,43.939"/>
		</g>
		<path d="M71.964,51.397c-5.586,0-10.194-1.578-10.598-3.577l0.002,5.237c0,2.134,4.744,3.864,10.596,3.864
			s10.596-1.73,10.596-3.864c0,0,0.012-5.142-0.006-5.237C82.15,49.819,77.553,51.397,71.964,51.397L71.964,51.397z M71.964,51.397"
			/>
	</g>
	<line fill="none" stroke-miterlimit="10" x1="44.133" y1="52.221" x2="53.987" y2="47.971"/>
	<g>
		
			<ellipse stroke-width="0.9678" stroke-miterlimit="10" cx="51.66" cy="91.252" rx="5.124" ry="5.012"/>
		
			<ellipse stroke-width="0.9678" stroke-miterlimit="10" cx="52.931" cy="78.125" rx="3.882" ry="3.799"/>
		
			<ellipse stroke-width="0.9678" stroke-miterlimit="10" cx="60.945" cy="87.197" rx="2.421" ry="2.369"/>
		
			<ellipse stroke-width="0.9678" stroke-miterlimit="10" cx="61.982" cy="77.719" rx="1.982" ry="1.939"/>
		<path stroke-width="0.9678" stroke-miterlimit="10" d="M68.172,84.721
			c0,0.832-0.692,1.512-1.544,1.512c-0.854,0-1.545-0.68-1.545-1.512c0-0.836,0.691-1.512,1.545-1.512
			C67.48,83.209,68.172,83.885,68.172,84.721z"/>
		<path stroke-width="1.6232" stroke-miterlimit="10" d="M55.058,79.658L60,86.232L55.058,79.658z"
			/>
		<path stroke-width="2.029" stroke-miterlimit="10" d="M51.66,87.197l0.66-6.434L51.66,87.197z"/>
		
			<line stroke-width="1.2174" stroke-miterlimit="10" x1="60.537" y1="86.232" x2="61.981" y2="78.531"/>
		
			<line stroke-width="0.8116" stroke-miterlimit="10" x1="62.87" y1="78.762" x2="65.91" y2="83.381"/>
	</g>
	<line fill="none" stroke-miterlimit="10" x1="39.315" y1="68.869" x2="44.839" y2="76.779"/>
	<line fill="none" stroke-miterlimit="10" x1="63.39" y1="72.824" x2="65.627" y2="62.972"/>
	<rect x="29.925" y="47.182" fill="none" stroke-width="2" stroke-miterlimit="10" width="8.836" height="8.409"/>
	<rect x="18.753" y="42.759" fill="none"  stroke-width="2" stroke-miterlimit="10" width="8.836" height="8.41"/>
	<rect x="7.503" y="47.692" fill="none" stroke-width="2" stroke-miterlimit="10" width="8.836" height="8.41"/>
	<rect x="18.75" y="60.692" fill="none" stroke-width="2" stroke-miterlimit="10" width="8.836" height="8.411"/>
	<path fill="none" stroke-width="0.5" d="M17.089,65.557c-3.962,0-7.168-4.352-7.168-9.729"/>
	<line fill="none"  stroke-width="0.4327" x1="23.168" y1="51.387" x2="23.168" y2="58.397"/>
	<polygon points="13.932,66.398 15.741,65.365 15.061,63.396 17.73,66.113 	"/>
	<polygon points="21.728,56.847 23.168,58.04 24.608,56.847 23.168,59.948 	"/>
	<path fill="none" stroke-width="0.5" d="M29.203,65.557c3.962,0,7.168-4.352,7.168-9.729"/>
	<polygon points="32.36,66.398 30.551,65.365 31.232,63.396 28.562,66.113 	"/>
</g>
<g>
</g>
<g>
</g>
<g>
</g>
<g>
</g>
<g>
</g>
<g>
</g>
<g>
</g>
<g>
</g>
<g>
</g>
<g>
</g>
<g>
</g>
<g>
</g>
</svg>
